<svg width="48" height="48" viewBox="0 0 48 48" fill="none" xmlns="http://www.w3.org/2000/svg">
<circle cx="24" cy="24" r="23" stroke="#191919" stroke-width="2"/>
<path d="M25.5118 32.8871C24.308 32.8871 23.2046 32.8871 22.051 32.8871C22.051 30.3027 22.051 27.7434 22.051 25.1338C21.098 25.1338 20.1701 25.1338 19.2422 25.1338C19.2422 24.0298 19.2422 22.976 19.2422 21.897C20.1701 21.897 21.0729 21.897 22.051 21.897C22.051 21.6712 22.051 21.4705 22.051 21.2948C22.076 20.3665 22.0008 19.4381 22.1262 18.5348C22.4271 16.4271 23.7563 15.2227 25.888 15.1223C26.7657 15.0722 27.6434 15.2227 28.4961 15.298C28.5964 15.298 28.7469 15.4736 28.7469 15.574C28.772 16.3769 28.7469 17.2049 28.7469 18.0831C28.2704 18.0831 27.819 18.0831 27.3676 18.0831C26.1137 18.0831 25.5118 18.6853 25.5118 19.965C25.5118 20.5923 25.5118 21.2196 25.5118 21.9221C26.5651 21.9221 27.5682 21.9221 28.5964 21.9221C28.4209 23.0262 28.2704 24.0549 28.0949 25.1589C27.2422 25.1589 26.3895 25.1589 25.5118 25.1589C25.5118 27.7183 25.5118 30.2776 25.5118 32.8871Z" fill="#191919"/>
</svg>
