<svg width="48" height="48" viewBox="0 0 48 48" fill="none" xmlns="http://www.w3.org/2000/svg">
<circle cx="24" cy="24" r="23" stroke="#191919" stroke-width="2"/>
<path d="M15.4355 29.3941C17.3164 29.5698 19.0218 29.0931 20.5766 27.9388C19.7992 27.8887 19.1221 27.6628 18.5453 27.2112C17.9685 26.7595 17.5421 26.2075 17.3164 25.4799C17.8431 25.5552 18.3196 25.5552 18.8211 25.4297C18.0186 25.229 17.3666 24.8024 16.865 24.1751C16.3634 23.5227 16.1127 22.7951 16.0876 21.942C16.5641 22.1678 17.0656 22.3434 17.6174 22.3685C16.0625 21.0638 15.7365 19.5081 16.5891 17.6513C18.5202 19.9096 20.9026 21.1641 23.8368 21.3649C23.8368 21.0136 23.7866 20.6623 23.8117 20.311C23.887 19.1568 24.4387 18.2284 25.4167 17.6012C26.8462 16.6979 28.5515 16.8735 29.7804 18.0528C29.8556 18.1281 29.9308 18.1532 30.0312 18.1281C30.7584 17.9524 31.4355 17.7015 32.1127 17.3001C31.8368 18.1281 31.3352 18.7303 30.6581 19.207C31.3101 19.1317 31.9371 18.9561 32.5641 18.7303C32.4387 18.9059 32.3133 19.0815 32.1879 19.2321C31.8368 19.6837 31.4105 20.0601 30.9591 20.4114C30.9089 20.4616 30.8587 20.5619 30.8587 20.6372C30.8838 23.6733 29.8054 26.2577 27.6236 28.3654C26.2694 29.6702 24.6142 30.4731 22.7584 30.7993C21.6299 31 20.5014 31.0251 19.3478 30.8745C17.9685 30.6738 16.6644 30.1971 15.4857 29.4443C15.4606 29.4443 15.4606 29.4443 15.4355 29.3941Z" fill="#191919"/>
</svg>
