<svg width="48" height="48" viewBox="0 0 48 48" fill="none" xmlns="http://www.w3.org/2000/svg">
<circle cx="24" cy="24" r="23" stroke="#191919" stroke-width="2"/>
<path d="M32.162 24.3511L32.137 23.4729H24.2122V25.7563H29.5539C28.9269 28.5163 26.9708 30.2225 24.3627 30.2225C20.9269 30.2225 18.1432 27.4374 18.1432 23.9999C18.1432 20.5623 20.9269 17.7772 24.3627 17.7772C25.9928 17.7772 27.4724 18.4045 28.6009 19.4332L30.3564 17.9277C28.8266 16.4222 26.695 15.4688 24.3627 15.4688C19.6479 15.4688 15.836 19.2827 15.836 23.9999C15.836 28.7171 19.6479 32.531 24.3627 32.531C28.9019 32.531 32.162 29.0683 32.162 24.3511Z" fill="#191919"/>
<path d="M24.3635 32.6569C19.5986 32.6569 15.7114 28.7677 15.7114 24.0003C15.7114 19.2329 19.5986 15.3438 24.3635 15.3438C26.6456 15.3438 28.8023 16.222 30.4324 17.8278L30.5327 17.9282L28.6017 19.6093L28.5265 19.534C27.3979 18.4802 25.9183 17.9031 24.3885 17.9031C21.028 17.9031 18.2945 20.6381 18.2945 24.0003C18.2945 27.3626 21.028 30.0975 24.3885 30.0975C26.8964 30.0975 28.7773 28.5168 29.4293 25.8822H24.1127V23.3479H32.2632L32.2882 24.3516C32.2882 29.1692 28.9528 32.6569 24.3635 32.6569ZM24.3635 15.5947C19.724 15.5947 15.9622 19.3584 15.9622 24.0003C15.9622 28.6422 19.724 32.406 24.3635 32.406C28.8023 32.406 32.0374 29.0186 32.0374 24.3767V23.6239H24.3635V25.6563H29.7302L29.7052 25.8069C29.0531 28.6673 27.0719 30.3735 24.3885 30.3735C20.9026 30.3735 18.0437 27.5382 18.0437 24.0254C18.0437 20.5377 20.8776 17.6773 24.3885 17.6773C25.9434 17.6773 27.4481 18.2544 28.6268 19.3082L30.1817 17.9533C28.6017 16.4227 26.5453 15.5947 24.3635 15.5947Z" fill="#191919"/>
</svg>
