<svg width="161" height="56" viewBox="0 0 161 56" fill="none" xmlns="http://www.w3.org/2000/svg">
<path d="M25.4436 1.37063L46.544 21.9301L47.9473 23.3007L46.544 24.6713L25.4436 45.2797L24.0402 46.6503L22.687 45.2797L1.58663 24.6713L0.233398 23.3007L1.58663 21.9301L22.7371 1.37063L24.0904 0L25.4436 1.37063Z" fill="#FEF35B"/>
<path d="M46.544 21.9301L25.4436 1.37063L24.0904 0L22.7371 1.37063L1.58663 21.9301L0.233398 23.3007L1.58663 24.6713L22.687 45.2797L24.0402 46.6503L25.4436 45.2797L46.544 24.6713L47.9473 23.3007L46.544 21.9301ZM24.0904 41.1678L5.74656 23.3007L24.0904 5.38461L42.3841 23.3007L24.0904 41.1678Z" fill="#1A1A1A"/>
<path d="M26.2456 18.9443H21.7349V32.8464H26.2456V18.9443Z" fill="#1A1A1A"/>
<path d="M21.6851 15.6152C21.6851 16.2515 21.9357 16.741 22.3867 17.2305C22.8378 17.6711 23.3891 17.9159 24.0407 17.9159C24.6922 17.9159 25.2436 17.6711 25.6946 17.2305C26.1457 16.79 26.3963 16.2515 26.3963 15.6152C26.3963 14.9788 26.1457 14.4403 25.6946 13.9998C25.2436 13.5592 24.6922 13.3145 24.0407 13.3145C23.3891 13.3145 22.7877 13.5592 22.3366 13.9998C21.9357 14.4403 21.6851 14.9788 21.6851 15.6152Z" fill="#1A1A1A"/>
<path d="M43.8373 38.8184H40.4292V55.8533H43.8373V38.8184Z" fill="#1A1A1A"/>
<path d="M57.8216 49.2449L50.9051 38.8184H47.8979V55.8533H51.3061V45.4268L58.1725 55.8533H61.2298V38.8184H57.8216V49.2449Z" fill="#1A1A1A"/>
<path d="M65.2886 55.8533H68.6967V48.9512H75.5631V45.9652H68.6967V41.8044H76.766V38.8184H65.2886V55.8533Z" fill="#1A1A1A"/>
<path d="M85.0859 38.6709C83.0811 38.6709 81.5775 39.3562 80.3746 40.531C78.6204 42.2443 78.6706 44.3982 78.6706 47.3352C78.6706 50.2723 78.6204 52.4261 80.3746 54.1394C81.5775 55.3143 83.1312 55.9996 85.0859 55.9996C87.0907 55.9996 88.5441 55.3143 89.7971 54.1394C91.5513 52.4261 91.5513 50.2723 91.5513 47.3352C91.5513 44.3982 91.5513 42.2443 89.7971 40.531C88.5943 39.3562 87.0907 38.6709 85.0859 38.6709ZM87.2911 52.1324C86.7899 52.6709 86.0381 53.0625 85.136 53.0625C84.1837 53.0625 83.4319 52.7198 82.9307 52.1324C82.2792 51.3982 82.0787 50.615 82.0787 47.3352C82.0787 44.0555 82.2291 43.2723 82.9307 42.538C83.4319 41.9996 84.1837 41.608 85.136 41.608C86.0883 41.608 86.8401 41.9506 87.2911 42.538C87.9427 43.2723 88.1432 44.0555 88.1432 47.3352C88.1432 50.615 87.9427 51.3982 87.2911 52.1324Z" fill="#1A1A1A"/>
<path d="M111.099 41.4617V38.8184H99.9721V41.8044H107.089L99.6714 53.161V55.8533H111.099V52.9163H103.631L111.099 41.4617Z" fill="#1A1A1A"/>
<path d="M119.968 38.6719C117.963 38.6719 116.46 39.3572 115.257 40.532C113.503 42.2453 113.553 44.3991 113.553 47.3362C113.553 50.2733 113.503 52.4271 115.257 54.1404C116.46 55.3152 118.014 56.0005 119.968 56.0005C121.973 56.0005 123.426 55.3152 124.679 54.1404C126.434 52.4271 126.434 50.2733 126.434 47.3362C126.434 44.3991 126.434 42.2453 124.679 40.532C123.426 39.3572 121.973 38.6719 119.968 38.6719ZM122.173 52.1334C121.672 52.6719 120.92 53.0635 120.018 53.0635C119.066 53.0635 118.314 52.7208 117.813 52.1334C117.161 51.3991 116.961 50.6159 116.961 47.3362C116.961 44.0565 117.111 43.2733 117.813 42.539C118.314 42.0005 119.066 41.6089 120.018 41.6089C120.971 41.6089 121.722 41.9516 122.224 42.539C122.875 43.2733 123.076 44.0565 123.076 47.3362C123.026 50.6159 122.825 51.3991 122.173 52.1334Z" fill="#1A1A1A"/>
<path d="M139.817 38.8184V49.2449L132.901 38.8184H129.894V55.8533H133.302V45.4268L140.218 55.8533H143.225V38.8184H139.817Z" fill="#1A1A1A"/>
<path d="M154.401 38.8184H151.745L145.379 55.8533H148.938L149.99 52.8184H156.205L157.258 55.8533H160.816L154.401 38.8184ZM150.943 50.0281L153.148 43.8114L155.303 50.0281H150.943Z" fill="#1A1A1A"/>
</svg>
