<svg width="36" height="35" viewBox="0 0 36 35" fill="none" xmlns="http://www.w3.org/2000/svg">
<path d="M18.5402 1.00799L34.0579 16.1279L35.09 17.1359L34.0579 18.1439L18.5402 33.2998L17.5081 34.3078L16.5129 33.2998L0.9952 18.1439L0 17.1359L0.9952 16.1279L16.5498 1.00799L17.545 0L18.5402 1.00799Z" fill="#FEF35B"/>
<path d="M34.0579 16.1279L18.5402 1.00799L17.545 0L16.5498 1.00799L0.9952 16.1279L0 17.1359L0.9952 18.1439L16.5129 33.2998L17.5081 34.3078L18.5402 33.2998L34.0579 18.1439L35.09 17.1359L34.0579 16.1279ZM17.545 30.2758L4.05452 17.1359L17.545 3.95998L30.9986 17.1359L17.545 30.2758Z" fill="#1A1A1A"/>
<path d="M19.13 13.9316H15.8126V24.1556H19.13V13.9316Z" fill="#1A1A1A"/>
<path d="M15.7762 11.484C15.7762 11.952 15.9605 12.312 16.2923 12.672C16.624 12.996 17.0295 13.176 17.5086 13.176C17.9878 13.176 18.3933 12.996 18.725 12.672C19.0567 12.348 19.241 11.952 19.241 11.484C19.241 11.016 19.0567 10.62 18.725 10.296C18.3933 9.97199 17.9878 9.79199 17.5086 9.79199C17.0295 9.79199 16.5871 9.97199 16.2554 10.296C15.9605 10.62 15.7762 11.016 15.7762 11.484Z" fill="#1A1A1A"/>
</svg>
